<svg xmlns="http://www.w3.org/2000/svg" width="1370.014" height="1221.599" viewBox="0 0 1370.014 1221.599">
  <g id="FREE-FIRMNESS-SWAP" transform="translate(-8419.158 -11857.559)">
    <g id="Group_4" data-name="Group 4" transform="translate(1749.706 5017.52)">
      <path id="Path_7" data-name="Path 7" d="M-5585.433,6134.918c86.054,21.878,497.362,35.005,497.362,35.005s182.317,13.126,224.615-105.015,18.961-369.01,18.961-369.01l-5.834-145.854s5.834-110.849-128.351-128.351-69.865,0-69.865,0l7.033,33.546h16.159s97.722-2.917,116.683,67.093,24.795,220.239,24.795,220.239v278.581s0,64.176-45.214,84.6-163.356,30.629-204.2,29.17-380.678-29.17-380.678-29.17-98.568,4.157-128.029-125.879S-5671.486,6113.041-5585.433,6134.918Z" transform="matrix(0.999, -0.035, 0.035, 0.999, 12659.25, 1697.516)" fill="#4f857c"/>
      <path id="Path_8" data-name="Path 8" d="M-5585.433,6134.918c86.054,21.878,497.362,35.005,497.362,35.005s182.317,13.126,224.615-105.015,18.961-369.01,18.961-369.01l-5.834-145.854-33.546-72.059-66.75-39.621-19.81,33.017s42.8-19.06,61.765,50.95,24.795,220.239,24.795,220.239v278.581s0,64.176-45.214,84.6-163.356,30.629-204.2,29.17-380.678-29.17-380.678-29.17-98.568,4.157-128.029-125.879S-5671.486,6113.041-5585.433,6134.918Z" transform="matrix(0.999, -0.035, 0.035, 0.999, 12470.185, 1527.01)" fill="#4f857c"/>
      <path id="Path_6" data-name="Path 6" d="M-6243.767,4921.055c-32.6,29.829-94.48,107.687-22.35,193.022-4.063,12.191,10.16,29.461-22.35,40.636s-51.811,92.447-24.382,126.988,54.858,32.51,39.62,61.971-55.875,76.193-15.238,130.036c21.334,20.318,65.018,24.381,44.7,57.906s-93.463,130.037,22.35,165.593,157.466,8.127,157.466,8.127,43.684-21.334,71.113,14.223,92.448,15.239,118.861-8.127,89.4,16.254,89.4,16.254,78.225,40.636,118.861,0,76.193,8.127,144.259,0,57.907-42.668,121.909-40.636,106.67,6.1,137.147-103.623,0-154.418,0-154.418l-26.414-29.461s-27.429-17.27,0-49.779,26.414-67.05-15.239-91.432,34.541-87.368,34.541-87.368,62.986-78.225,0-104.638-75.721-33.684-75.721-33.684,55.484-112.531-113.313-67.206c-15.629,3.125-60.173,20.318-60.173,20.318s10.159-107.061-79.709-90.65-153.949,64.862-153.949,64.862-25.789,16.411-35.166-10.159-99.247-93.776-168.8-11.722c-9.377,12.5-26.57,27.352-26.57,27.352s-28.133,12.5-42.98-27.352-123.643-80.518-176.819-47.224-7.861,28.207-7.861,28.207,83.881-38.519,128.965,10.173,66.585,104.6,125.265,55.3,78.517-74.284,115.787-46.459,33.062,93.949,110.006,51.87,123.231-58.31,123.231-58.31,61.315-18.635,60.113,37.871,31.259,42.68,31.259,42.68l111.81-27.652s66.124-10.821,38.472,24.646,4.809,50.495,4.809,50.495l76.343,33.664s33.062,10.218-3.006,49.292-69.129,86.563-69.129,86.563-22.859,16.832,11.413,39.073,41.18,33.062,41.18,33.062,26.155,19.236-9.913,43.281-35.467,42.079-17.433,59.512,43.882,49.894,43.882,49.894,28.854,38.472,0,119.624c-2.4,1.8-20.438,51.7-20.438,51.7s-21.039,39.674-66.725,27.652-111.81,28.854-111.81,28.854-62.517,26.45-113.613,0-98.585,17.433-98.585,17.433-42.681,27.651-113.012-21.04c-16.23-8.416-52.9-12.623-86.562,13.225s-82.956-17.433-82.956-17.433-36.068-32.46-96.782,0-146.675-13.225-146.675-13.225-50.494-20.438-6.612-88.366,31.258-74.54,31.258-74.54,1.2-25.247-57.107-38.472,13.368-119.023,13.368-119.023,25.706-24.646-8.559-52.9-76.274-52.9-13.792-106.4,48.657-52.3,45.652-74.541-55.305-28.854-31.86-85.36,41.755-77.545,41.755-77.545S-6211.164,4891.227-6243.767,4921.055Z" transform="matrix(0.999, -0.035, 0.035, 0.999, 12821.28, 1781.504)" fill="#4f857c"/>
    </g>
    <g id="Group_8" data-name="Group 8" transform="translate(1985.706 4771)">
      <path id="Path_15" data-name="Path 15" d="M6661.909,8014.021s-43.413,224.764,203.107,232.122" fill="none" stroke="#4f857c" stroke-width="30"/>
      <path id="Path_16" data-name="Path 16" d="M6808.967,8178.335l56.506,67.928-56.506,43.28" fill="none" stroke="#4f857c" stroke-width="30"/>
    </g>
    <g id="Group_9" data-name="Group 9" transform="translate(16399.137 20211.102) rotate(180)">
      <path id="Path_15-2" data-name="Path 15" d="M6661.909,8014.021s-43.413,224.764,203.107,232.122" fill="none" stroke="#4f857c" stroke-width="30"/>
      <path id="Path_16-2" data-name="Path 16" d="M6808.967,8178.335l56.506,67.928-56.506,43.28" fill="none" stroke="#4f857c" stroke-width="30"/>
    </g>
  </g>
</svg>
