<svg xmlns="http://www.w3.org/2000/svg" width="86.328" height="30.82" viewBox="0 0 86.328 30.82">
  <g id="Group_745" data-name="Group 745" transform="translate(0 0)">
    <path d="M91.362-27.335H83.506L71.632-56.4h8.624L87.463-36.9,94.374-56.4h8.27Z" transform="translate(-42.977 57.328)" fill="#4f857c"/>
    <path  d="M184.153-46.075l7.148-1.063c1.654-.236,2.185-1.063,2.185-2.068,0-2.067-1.595-3.78-4.9-3.78-3.426,0-5.317,2.186-5.553,4.726l-6.97-1.477c.473-4.548,4.666-9.569,12.464-9.569,9.215,0,12.641,5.2,12.641,11.046v14.295a32.589,32.589,0,0,0,.354,4.608h-7.206a19.675,19.675,0,0,1-.3-3.485,9.714,9.714,0,0,1-8.565,4.312c-6.2,0-9.983-4.195-9.983-8.743,0-5.2,3.839-8.093,8.684-8.8m9.333,4.962v-1.3l-6.557,1c-2.008.295-3.6,1.417-3.6,3.662,0,1.714,1.241,3.368,3.781,3.368,3.308,0,6.38-1.595,6.38-6.734" transform="translate(-115.191 59.351)" fill="#4f857c"/>
    <path  d="M-.483-39.736c-.77,2.142-2.463,3.747-5.548,4.219a7.079,7.079,0,0,1-8.24-5.433L6.283-44.092c-.018-.117-.079-1.3-.249-2.413C4.623-55.73-1.556-60.582-10.432-59.225c-7.357,1.125-13.22,8.117-11.819,17.284,1.482,9.693,9.3,14.295,17.18,13.089,6.3-.963,10.1-4.916,11.343-9.437Zm-8.868-13.2c4.438-.679,6.735,1.839,7.289,4.682L-14.908-46.29a6.288,6.288,0,0,1,5.557-6.646" transform="translate(22.459 59.45)" fill="#4f857c"/>
  </g>
</svg>
